<?xml version="1.0" encoding="UTF-8"?>
<svg width="118px" height="27px" viewBox="0 0 118 27" version="1.1" xmlns="http://www.w3.org/2000/svg" xmlns:xlink="http://www.w3.org/1999/xlink">
    <!-- Generator: Sketch 58 (84663) - https://sketch.com -->
    <title>Shape</title>
    <desc>Created with Sketch.</desc>
    <g id="Page-1" stroke="none" stroke-width="1" fill="none" fill-rule="evenodd">
        <g id="Artboard" transform="translate(-194.000000, -173.000000)" fill="#1FBE92" fill-rule="nonzero">
            <g id="Group" transform="translate(167.000000, 70.000000)">
                <g id="stream-icon-copy" transform="translate(27.000000, 103.000000)">
                    <path d="M8.08140563,27 C5.65072442,27 3.62097508,26.6625 1.99215762,25.9875001 C1.14017034,25.6624688 0.476113415,25.3125001 0,24.9375001 L1.69145402,21.9375004 L2.06733353,21.9375004 C2.3930989,22.2124691 2.8441543,22.5 3.42049975,22.8000003 C4.62331417,23.3500315 6.05165629,23.6250002 7.70552612,23.6250002 C9.18401057,23.6250002 10.2990571,23.2875003 11.0508161,22.6125003 C11.8276651,21.9375004 12.2160426,21.0250317 12.2160426,19.8750005 C12.2160426,19.1500318 12.0031069,18.5250006 11.5770474,18 C11.151082,17.4499694 10.6123527,16.9875007 9.96076557,16.6125007 C9.30927242,16.2124695 8.41969718,15.7500008 7.29205866,15.2250008 C5.78854064,14.5249696 4.56067385,13.8750009 3.6084395,13.275001 C2.65621455,12.6499697 1.84180582,11.8375323 1.16522271,10.8375011 C0.513701365,9.83746994 0.187939753,8.59999815 0.187939753,7.12500138 C0.187939753,5.8000046 0.538763132,4.60000468 1.24039861,3.52500163 C1.94204349,2.42500483 2.95691816,1.56250489 4.28502261,0.93750181 C5.61313647,0.312499666 7.19183039,0 9.0210668,0 C11.2262579,0 13.1432434,0.350000601 14.7720233,1.0500018 C15.4987863,1.32499866 16.1502794,1.66249863 16.7265967,2.06250173 L15.0351389,5.06250152 L14.6592594,5.06250152 C14.3836458,4.83750154 13.9576803,4.56250468 13.3812691,4.23750158 C12.1784547,3.66250475 10.8503784,3.37500164 9.39694631,3.37500164 C8.29440715,3.37500164 7.35470838,3.72499849 6.5778876,4.42500157 C5.82612859,5.10000152 5.45024908,5.87500459 5.45024908,6.75000141 C5.45024908,7.47499823 5.6632506,8.11249819 6.08924424,8.66250127 C6.51524728,9.18750124 7.05400477,9.64996995 7.70552612,10.0500012 C8.35705686,10.4250012 9.24659451,10.8750011 10.374233,11.4000011 C11.8777511,12.1000323 13.1056554,12.7624697 14.0578522,13.3875009 C15.0101429,13.9875009 15.8119879,14.7874696 16.463481,15.7875008 C17.1400641,16.787532 17.4783557,18.0250319 17.4783557,19.5 C17.4783557,20.9500317 17.1150682,22.2499691 16.3883051,23.4000002 C15.686726,24.5250002 14.6216714,25.4125314 13.1933293,26.0625001 C11.7900772,26.6875313 10.0861214,27 8.08140563,27 Z M28.760661,27 C26.6056498,27 24.9016001,26.4124688 23.6486997,25.2375001 C22.4207953,24.0625315 21.8068901,22.5250316 21.8068901,20.6250004 L21.8068901,11.2500011 L19.3636733,11.2500011 L19.3636733,9.00000125 L25.0018659,3.37500164 L27.0692032,3.37500164 L27.0692032,7.87500164 L31.3918175,7.87500164 L31.3918175,11.2500011 L27.0692032,11.2500011 L27.0692032,20.6250004 C27.0692032,21.6250316 27.257143,22.3750316 27.6330225,22.8750016 C28.008902,23.374969 28.5100433,23.6250002 29.1365405,23.6250002 C29.8882995,23.6250002 30.6275605,23.374969 31.3542296,22.8750016 C31.6800231,22.6500003 32.0057227,22.3999691 32.3315163,22.1250003 L32.7073958,22.1250003 L34.3988536,25.1250001 C33.7473604,25.5499689 33.1835412,25.8625313 32.7073958,26.0625001 C31.3542296,26.6875313 30.0386513,27 28.760661,27 Z M37.0315136,7.87500133 L40.7903087,7.87500133 L41.1661882,10.1250012 L41.354128,10.1250012 C41.6046517,9.7500012 42.0307111,9.31246998 42.6321183,8.81250126 C43.8098427,7.93750445 45.0753351,7.50000135 46.4285013,7.50000135 C47.0799945,7.50000135 47.7189896,7.56250447 48.3454868,7.68750134 C48.7463623,7.78750446 49.0470659,7.8499982 49.2475976,7.87500133 L48.4958386,11.6250011 L48.1199591,11.6250011 C47.8944314,11.5999698 47.6187238,11.5375323 47.2930242,11.4375011 C46.7417029,11.3125323 46.1402957,11.2500011 45.4888025,11.2500011 C44.6618676,11.2500011 43.8725207,11.6250011 43.1207616,12.375001 C42.870144,12.675001 42.5945303,13.050001 42.2938267,13.5000014 L42.2938267,26.625 L37.0315136,26.625 L37.0315136,7.87500133 Z M60.1304369,27.0000014 C53.8657472,27.0000014 50.7334493,23.749969 50.7334493,17.2500007 C50.7334493,14.0500321 51.4601183,11.6250011 52.9135504,9.97500118 C54.3669825,8.3250013 56.3967318,7.50000135 59.0027984,7.50000135 C61.583869,7.50000135 63.6010264,8.29999817 65.0544585,9.90000119 C66.5328865,11.5000323 67.2721476,13.8250322 67.2721476,16.8750007 L67.2721476,17.8125006 L66.144509,18.9375006 L55.9957624,18.9375006 C55.9957624,22.0624691 57.4992804,23.6250002 60.5063164,23.6250002 C61.5587791,23.6250002 62.5235678,23.374969 63.4005886,22.8750003 C63.7513782,22.699969 64.1022617,22.4500316 64.4530513,22.1250003 L64.8289308,22.1250003 L66.5203885,25.1250001 C65.8187155,25.5499689 65.2173083,25.8625313 64.7161669,26.0625001 C63.2126489,26.6875313 61.6840409,27.0000014 60.1304369,27.0000014 Z M62.0098345,15.5625008 C62.0098345,14.0625009 61.7091309,12.9124697 61.1077237,12.112501 C60.5314064,11.2875011 59.8297333,10.8750011 59.0027984,10.8750011 C58.1758635,10.8750011 57.4616924,11.2875011 56.8602852,12.112501 C56.283968,12.9124697 55.9957624,14.0625009 55.9957624,15.5625008 L62.0098345,15.5625008 Z M77.2153821,27.0000014 C75.010191,27.0000014 73.2936433,26.475 72.0658329,25.4250001 C70.8630185,24.3499689 70.2616112,22.9375315 70.2616112,21.1875004 C70.2616112,19.3125005 70.9381944,17.8500006 72.2913606,16.8000007 C73.6695228,15.7249695 75.812036,15.1875008 78.7189001,15.1875008 L81.3500567,15.1875008 L81.3500567,14.6250009 C81.3500567,13.3000322 81.0618511,12.3499698 80.4855338,11.7750011 C79.9091226,11.1750011 79.0070118,10.8750011 77.7792014,10.8750011 C76.7267388,10.8750011 75.76195,11.1250324 74.8849292,11.6250011 C74.5340457,11.8000323 74.1832561,12.0499698 73.8324666,12.375001 L73.456587,12.375001 L71.7651293,9.37500122 C72.3665365,8.97497 72.9553517,8.66250127 73.5317629,8.43750129 C75.1605428,7.81249821 76.7016488,7.50000135 78.1550809,7.50000135 C79.9091226,7.50000135 81.4252326,7.81249821 82.7032229,8.43750129 C83.9812132,9.03750125 84.945908,9.87496994 85.5974951,10.9500011 C86.2740782,12.0250323 86.6123698,13.2499697 86.6123698,14.6250009 L86.6123698,26.625 L82.8535747,26.625 L82.4776952,24.3750002 L82.2897554,24.3750002 C81.863696,24.9250314 81.4377306,25.3624689 81.0117651,25.6875001 C79.9593025,26.5624688 78.6938102,27.0000014 77.2153821,27.0000014 Z M78.1550809,23.4375002 C78.9318359,23.4375002 79.6961869,23.0625006 80.4479459,22.3125003 C80.7987354,21.9625316 81.099439,21.5875316 81.3500567,21.1875004 L81.3500567,18.5625006 L78.7189001,18.5625006 C76.5888849,18.5625006 75.5239243,19.4374693 75.5239243,21.1875004 C75.5239243,21.8625004 75.749452,22.4125316 76.2005074,22.8375003 C76.6765588,23.2375315 77.328146,23.4375002 78.1550809,23.4375002 Z M91.6881527,7.87500133 L95.4472296,7.87500133 L95.8231091,10.1250012 L96.0110489,10.1250012 C96.2863806,9.72496995 96.687632,9.28753248 97.2138633,8.81250126 C98.2907581,7.93750445 99.4559846,7.50000135 100.709543,7.50000135 C102.237493,7.50000135 103.515483,7.93750445 104.543514,8.81250126 C104.994569,9.23746998 105.345077,9.6750012 105.595976,10.1250012 C105.946484,9.70003245 106.435127,9.26250123 107.061906,8.81250126 C108.464877,7.93750445 109.855631,7.50000135 111.234169,7.50000135 C113.339094,7.50000135 114.992964,8.12500444 116.195778,9.37500122 C117.398593,10.6249699 118,12.375001 118,14.6250009 L118,26.625 L112.737687,26.625 L112.737687,14.6250009 C112.737687,13.4749697 112.499003,12.600001 112.023516,12.0000014 C111.57246,11.3749698 110.995485,11.0625011 110.29447,11.0625011 C109.617887,11.0625011 108.941304,11.3749698 108.264721,12.0000014 C108.088997,12.1750323 107.825881,12.487501 107.475374,12.937501 L107.475374,26.625 L102.213061,26.625 L102.213061,14.6250009 C102.213061,13.4749697 101.974377,12.600001 101.49889,12.0000014 C101.047834,11.3749698 100.470859,11.0625011 99.7698439,11.0625011 C98.9673412,11.0625011 98.2663259,11.4375011 97.6649187,12.187501 C97.3388432,12.6124697 97.1010995,12.9874697 96.9507476,13.312501 L96.9507476,26.625 L91.6881527,26.625 L91.6881527,7.87500133 Z" id="Shape"></path>
                </g>
            </g>
        </g>
    </g>
</svg>